{"title":"The.Inbetweeners.2.2014.BRRip.480p.x264.AAC-VYTO [P2PDL]","uid":11674552,"size":350751069,"categoryP":"video","categoryS":"movies","magnet":"?xt=urn:btih:4bf9234811ea64481556957a70a0844162e21b8c&amp;dn=The.Inbetweeners.2.2014.BRRip.480p.x264.AAC-VYTO+%5BP2PDL%5D&amp;tr=udp%3A%2F%2Ftracker.openbittorrent.com%3A80&amp;tr=udp%3A%2F%2Fopen.demonii.com%3A1337&amp;tr=udp%3A%2F%2Ftracker.coppersurfer.tk%3A6969&amp;tr=udp%3A%2F%2Fexodus.desync.com%3A6969","seeders":2,"leechers":0,"uploader":"ValidusVyto","files":6,"time":1422801146,"description":"The.Inbetweeners.2.2014.BRRip.480p.x264.AAC-VYTO\n\n\nGenre: Comedy\nIMDb: http://www.imdb.com/title/tt3097204/\n\nGeneral\nFormat                      : MPEG-4\nFile size                   : 326 MiB\nDuration                    : 1h 32mn\nOverall bit rate            : 496 Kbps\n\nVideo\nFormat                      : AVC\nBit rate                    : 453 Kbps\nWidth                       : 720 pixels\nHeight                      : 304 pixels\nDisplay aspect ratio        : 2.35:1\nFrame rate mode             : Constant\nFrame rate                  : 25.000 fps\nBit depth                   : 8 bits\nStream size                 : 298 MiB (91%)\nWriting library             : x264 core 142 r2491\n\nAudio\nFormat                      : AAC\nBit rate mode               : Variable\nBit rate                    : 40.0 Kbps\nChannel(s)                  : 2 channels\nChannel positions           : Front: L R\nSampling rate               : 48.0 KHz\nStream size                 : 26.3 MiB (8%)\nLanguage                    : English\n\nSubtitle                    : Yes(English)\n &lt;a href=&quot;\nhttp://someimage.com/7WECTJt&quot; rel=&quot;nofollow&quot; target=&quot;_NEW&quot;&gt;\nhttp://someimage.com/7WECTJt&lt;/a&gt; &lt;a href=&quot;\nhttp://someimage.com/30JRZBm&quot; rel=&quot;nofollow&quot; target=&quot;_NEW&quot;&gt;\nhttp://someimage.com/30JRZBm&lt;/a&gt;\n\n----------------------------------------------------------------------------------------------------\n\nRecommend to you to use latest version of VLC player. Install K-Lite Codec Pack or shark007 codecs\nin case of any kind of problem in playback (For non-VLC Media Player users). Alternatively, install\nCore AVC codecs, the fastest decoder that there is coupled with Community Center Codec Pack and play\non Windows Media Player Classic. Check sample to be sure.\nEnjoy!\n\nEncoder Notes: Looking For Early Access To Anything You Can Provide DVDScr, R5, DVDR, BluRay, Direct\nAudio, Music Releases and Seedboxes. We require dedicated servers, so as to do more \nand fast releases of movies.\nIf You Got anything to offer please contact us.\n\nFind us! Support us!","torrent":{"xt":"urn:btih:4bf9234811ea64481556957a70a0844162e21b8c","amp;dn":"The.Inbetweeners.2.2014.BRRip.480p.x264.AAC-VYTO+%5BP2PDL%5D","amp;tr":["udp%3A%2F%2Ftracker.openbittorrent.com%3A80","udp%3A%2F%2Fopen.demonii.com%3A1337","udp%3A%2F%2Ftracker.coppersurfer.tk%3A6969","udp%3A%2F%2Fexodus.desync.com%3A6969"],"infoHash":"4bf9234811ea64481556957a70a0844162e21b8c","infoHashBuffer":{"type":"Buffer","data":[75,249,35,72,17,234,100,72,21,86,149,122,112,160,132,65,98,226,27,140]},"announce":[],"urlList":[]}}